<svg height="512pt" viewBox="0 0 512 512" width="512pt" xmlns="http://www.w3.org/2000/svg"><path d="m512 0h-512v512h512zm-136 30-67.5 90h-278.5v-90zm106 452h-452v-332h293.5l90-120h68.5zm0 0"/><path d="m121 60h30v30h-30zm0 0"/><path d="m181 60h30v30h-30zm0 0"/><path d="m61 60h30v30h-30zm0 0"/><path d="m61 452h391v-272h-391zm30-242h331v212h-331zm0 0"/><path d="m305.394531 266.605469 49.390625 49.394531-49.390625 49.394531 21.210938 21.210938 70.609375-70.605469-70.609375-70.605469zm0 0"/><path d="m185.394531 245.394531-70.609375 70.605469 70.609375 70.605469 21.210938-21.210938-49.390625-49.394531 49.390625-49.394531zm0 0"/><path d="m247.550781 381.277344-28.085937-10.53125 44.996094-119.996094 28.089843 10.53125zm0 0"/></svg>